<svg width="30" height="30" viewBox="0 0 30 30" fill="none"
  xmlns="http://www.w3.org/2000/svg" class="social-links__item">
  <path d="M15 5.98253C17.9389 5.98253 18.2839 5.99563 19.4454 6.04803C20.5197 6.09607 21.1005 6.27511 21.4891 6.42795C21.9651 6.60262 22.3974 6.88646 22.7555 7.24891C23.1223 7.60262 23.4018 8.03493 23.5764 8.51528C23.7293 8.90393 23.9083 9.48472 23.9564 10.559C24.0088 11.7205 24.0219 12.0655 24.0219 15.0044C24.0219 17.9432 24.0088 18.2882 23.9564 19.4498C23.9083 20.524 23.7293 21.1048 23.5764 21.4935C23.2053 22.4541 22.4498 23.2096 21.4891 23.5808C21.1005 23.7336 20.5197 23.9127 19.4454 23.9607C18.2839 24.0131 17.9389 24.0262 15 24.0262C12.0611 24.0262 11.7162 24.0131 10.5546 23.9607C9.48036 23.9127 8.89957 23.7336 8.51092 23.5808C8.03494 23.4061 7.60262 23.1223 7.24455 22.7598C6.87773 22.4061 6.59826 21.9738 6.42358 21.4935C6.27074 21.1048 6.09171 20.524 6.04367 19.4498C5.99127 18.2882 5.97817 17.9432 5.97817 15.0044C5.97817 12.0655 5.99127 11.7205 6.04367 10.559C6.09171 9.48472 6.27074 8.90393 6.42358 8.51528C6.59826 8.0393 6.8821 7.60699 7.24455 7.24891C7.59826 6.8821 8.03057 6.60262 8.51092 6.42795C8.89957 6.27511 9.48036 6.09607 10.5546 6.04803C11.7162 5.99127 12.0655 5.98253 15 5.98253ZM15 4C12.0131 4 11.6376 4.0131 10.4629 4.0655C9.29258 4.1179 8.49345 4.30568 7.79476 4.57642C7.06114 4.85153 6.39738 5.28384 5.84716 5.84716C5.28821 6.39738 4.85153 7.06114 4.57642 7.79476C4.30568 8.49345 4.1179 9.29258 4.0655 10.4672C4.0131 11.6376 4 12.0131 4 15C4 17.9869 4.0131 18.3624 4.0655 19.5371C4.1179 20.7074 4.30568 21.5065 4.57642 22.2096C4.85153 22.9432 5.28384 23.607 5.84716 24.1572C6.39738 24.7162 7.06114 25.1485 7.79476 25.4279C8.49345 25.6987 9.29258 25.8865 10.4673 25.9389C11.6419 25.9913 12.0131 26.0044 15.0044 26.0044C17.9956 26.0044 18.3668 25.9913 19.5415 25.9389C20.7118 25.8865 21.5109 25.6987 22.214 25.4279C23.69 24.8559 24.8603 23.69 25.4323 22.2096C25.7031 21.5109 25.8909 20.7118 25.9433 19.5371C25.9957 18.3624 26.0088 17.9913 26.0088 15C26.0088 12.0087 25.9957 11.6376 25.9433 10.4629C25.8909 9.29258 25.7031 8.49345 25.4323 7.79039C25.1572 7.05677 24.7249 6.39301 24.1616 5.84279C23.6114 5.28384 22.9476 4.85153 22.214 4.57205C21.5153 4.30131 20.7162 4.11354 19.5415 4.06114C18.3625 4.0131 17.9869 4 15 4Z" fill="black"></path>
  <path d="M15 9.35394C11.8821 9.35394 9.34937 11.8823 9.34937 15.0046C9.34937 18.1269 11.8777 20.6553 15 20.6553C18.1223 20.6553 20.6507 18.1269 20.6507 15.0046C20.6507 11.8823 18.1223 9.35394 15 9.35394ZM15 18.6684C12.9738 18.6684 11.3319 17.0264 11.3319 15.0002C11.3319 12.974 12.9738 11.3321 15 11.3321C17.0262 11.3321 18.6681 12.974 18.6681 15.0002C18.6681 17.0264 17.0262 18.6684 15 18.6684Z" fill="black"></path>
  <path d="M20.8732 10.4453C21.6016 10.4453 22.192 9.85486 22.192 9.12652C22.192 8.39818 21.6016 7.80774 20.8732 7.80774C20.1449 7.80774 19.5544 8.39818 19.5544 9.12652C19.5544 9.85486 20.1449 10.4453 20.8732 10.4453Z" fill="black"></path>
</svg>