<svg width="30" height="30" viewBox="0 0 30 30" fill="none"
  xmlns="http://www.w3.org/2000/svg" class="social-links__item">
  <path d="M23.6522 6.07031L4.44611 13.6852C3.82393 13.9319 3.86173 14.8402 4.50212 15.0324L9.38272 16.4986L11.2041 22.379C11.3943 22.9933 12.1593 23.1793 12.6021 22.7193L15.1255 20.0978L20.0765 23.7954C20.6824 24.2478 21.5452 23.9115 21.6991 23.1632L24.9782 7.21277C25.1388 6.4313 24.3833 5.7804 23.6522 6.07031ZM21.2443 9.61006L12.3233 17.6366C12.2344 17.7165 12.1777 17.8273 12.1645 17.9472L11.8211 21.0537C11.8097 21.1552 11.6703 21.1686 11.6408 21.0712L10.2274 16.4382C10.1628 16.2262 10.2471 15.9964 10.4327 15.8793L20.9676 9.23152C21.2098 9.07875 21.4579 9.41778 21.2443 9.61006Z" fill="black"></path>
</svg>